<?xml version="1.0" encoding="utf-8"?>
<svg xmlns="http://www.w3.org/2000/svg" fill="none" height="100%" overflow="visible" preserveAspectRatio="none" style="display: block;" viewBox="0 0 21 21" width="100%">
<g clip-path="url(#clip0_0_118)" id="Layer_1">
<path d="M20.9607 8.1725V8.25157C20.9822 6.09524 20.1413 3.97484 18.5672 2.40072C17.0074 0.84097 14.9229 0 12.7882 0H8.15206C6.01729 0 3.94003 0.84097 2.38028 2.39353C0.813342 3.96765 -0.02044 6.08086 0.000404566 8.24438V8.16532V12.8014V12.7224C-0.0211588 14.8787 0.819811 16.9991 2.39393 18.5732C3.96806 20.1473 6.08126 20.9811 8.24478 20.9667H8.16572H12.8018H12.7228C14.8791 20.9883 16.9995 20.1473 18.5736 18.5732C20.1477 16.9991 20.9815 14.8859 20.9672 12.7224V12.8014L20.96 8.1725H20.9607ZM20.7163 10.142C20.7379 10.0557 20.7594 9.97664 20.7738 9.89038C20.7594 9.97664 20.7379 10.0629 20.7163 10.142C20.6947 10.2282 20.6804 10.3073 20.6732 10.4007C20.6947 10.3145 20.7019 10.2282 20.7163 10.142ZM20.9607 8.35939C20.9607 8.4097 20.9607 8.45283 20.9535 8.49595C20.9535 8.45283 20.9535 8.4097 20.9607 8.35939ZM20.9535 8.61815C20.9535 8.66846 20.9463 8.71159 20.9463 8.75471C20.9463 8.71159 20.9535 8.66127 20.9535 8.61815ZM20.9391 8.86972C20.9319 8.91284 20.9319 8.96316 20.9247 8.9991C20.9247 8.96316 20.9319 8.92003 20.9391 8.86972ZM20.8313 9.63881C20.8241 9.68194 20.8169 9.73225 20.8025 9.76819C20.8097 9.73225 20.8241 9.68194 20.8313 9.63881ZM5.37039 4.85175C5.77291 3.94609 6.33356 3.13387 7.04515 2.42228C7.88612 1.58131 8.89959 0.934411 10.0065 0.531896C10.3084 0.416891 10.639 0.416891 10.9481 0.531896C12.055 0.934411 13.0757 1.58131 13.9095 2.42228C14.6211 3.13387 15.1817 3.94609 15.5842 4.85175C15.6417 4.97394 15.5195 5.09613 15.3973 5.05301C13.931 4.56424 12.3282 4.49236 10.8187 4.87331C10.5959 4.93082 10.3659 4.93082 10.1431 4.87331C8.63364 4.49955 7.03077 4.56424 5.56446 5.05301C5.43508 5.10332 5.31289 4.98113 5.37039 4.85175ZM0.274259 10.4007C0.267071 10.3145 0.252696 10.2282 0.231132 10.142C0.209569 10.0557 0.188006 9.97664 0.17363 9.89038C0.195193 9.97664 0.209569 10.0557 0.231132 10.142C0.259883 10.2282 0.267071 10.3145 0.274259 10.4007ZM0.00831112 8.50314C0.00831112 8.45283 0.00112334 8.4097 0.00112334 8.36657C0.00831112 8.4097 0.00831112 8.45283 0.00831112 8.50314ZM0.10894 9.50943C0.101752 9.4663 0.0945644 9.42318 0.0873767 9.38005C0.0945644 9.43036 0.101752 9.47349 0.10894 9.50943ZM0.0370622 9.00629C0.0298745 8.96316 0.0298745 8.91284 0.0226867 8.87691C0.0298745 8.92003 0.0370622 8.96316 0.0370622 9.00629ZM0.0154989 8.75471C0.0154989 8.7044 0.00831112 8.66127 0.00831112 8.61815C0.00831112 8.66127 0.0154989 8.71159 0.0154989 8.75471ZM0.245508 10.832C0.223944 10.9182 0.202381 10.9973 0.188006 11.0836C0.202381 10.9973 0.223944 10.911 0.245508 10.832C0.267071 10.7457 0.281447 10.6667 0.288634 10.5732C0.267071 10.6595 0.259883 10.7457 0.245508 10.832ZM0.000404566 12.6145C0.000404566 12.5642 0.000404565 12.5211 0.00759234 12.478C0.00759234 12.5211 0.00759234 12.5642 0.000404566 12.6145ZM0.00831112 12.3558C0.00831112 12.3055 0.0154989 12.2623 0.0154989 12.2192C0.0154989 12.2623 0.00831112 12.3127 0.00831112 12.3558ZM0.0226867 12.1042C0.0298745 12.0611 0.0298745 12.0108 0.0370622 11.9748C0.0370622 12.0108 0.0298745 12.0539 0.0226867 12.1042ZM0.0873767 11.5867C0.0945644 11.5436 0.101752 11.5004 0.10894 11.4573C0.101752 11.5076 0.0945644 11.5436 0.0873767 11.5867ZM0.130503 11.3351C0.137691 11.292 0.144879 11.2417 0.159254 11.2057C0.152067 11.2417 0.137691 11.292 0.130503 11.3351ZM4.86725 10.142C4.92475 10.3648 4.92475 10.5948 4.86725 10.8176C4.49348 12.327 4.55817 13.9299 5.04694 15.3962C5.09007 15.5256 4.96069 15.6406 4.84569 15.5831C3.94003 15.1806 3.12781 14.6199 2.41622 13.9083C1.57525 13.0674 0.928347 12.0539 0.525831 10.947C0.410827 10.6451 0.410827 10.3145 0.525831 10.0054C0.928347 8.89847 1.57525 7.8778 2.41622 7.04402C3.12781 6.33243 3.94003 5.77179 4.84569 5.36927C4.96788 5.31177 5.09007 5.43396 5.04694 5.55615C4.55817 7.04402 4.50067 8.63252 4.86725 10.142ZM10.1359 20.7224C10.0496 20.7439 9.97057 20.7655 9.88432 20.7799C9.97057 20.7655 10.0568 20.7439 10.1359 20.7224C10.2221 20.7008 10.3012 20.6864 10.3946 20.6792C10.3084 20.7008 10.2221 20.708 10.1359 20.7224ZM8.35332 20.9667C8.40363 20.9667 8.44676 20.9667 8.48989 20.9596C8.44676 20.9596 8.40363 20.9596 8.35332 20.9667ZM8.61208 20.9596C8.66239 20.9596 8.70552 20.9524 8.74865 20.9524C8.70552 20.9524 8.65521 20.9596 8.61208 20.9596ZM8.86365 20.9452C8.90678 20.938 8.95709 20.938 8.99303 20.9308C8.95709 20.9308 8.91397 20.938 8.86365 20.9452ZM9.63274 20.8374C9.67587 20.8302 9.72619 20.823 9.76212 20.8086C9.72619 20.8158 9.67587 20.8302 9.63274 20.8374ZM10.5672 20.6936C10.6534 20.7008 10.7397 20.7152 10.8259 20.7367C10.9122 20.7583 10.9912 20.7799 11.0775 20.7942C10.9912 20.7727 10.9122 20.7583 10.8259 20.7367C10.7397 20.708 10.6534 20.7008 10.5672 20.6936ZM12.4647 20.9596C12.515 20.9596 12.5582 20.9667 12.6013 20.9667C12.5582 20.9596 12.515 20.9596 12.4647 20.9596ZM11.4584 20.8589C11.5016 20.8661 11.5447 20.8733 11.5878 20.8805C11.5375 20.8733 11.4944 20.8661 11.4584 20.8589ZM11.9616 20.9308C12.0047 20.938 12.055 20.938 12.091 20.9452C12.0478 20.938 12.0047 20.9308 11.9616 20.9308ZM12.2132 20.9524C12.2635 20.9524 12.3066 20.9596 12.3497 20.9596C12.3066 20.9596 12.2563 20.9524 12.2132 20.9524ZM15.5914 16.1222C15.1889 17.0278 14.6282 17.8401 13.9167 18.5517C13.0757 19.3926 12.0622 20.0395 10.9553 20.442C10.6534 20.557 10.3228 20.557 10.0137 20.442C8.90678 20.0395 7.88611 19.3926 7.05233 18.5517C6.34074 17.8401 5.7801 17.0207 5.37758 16.1222C5.32008 16 5.44227 15.8778 5.56446 15.9209C7.03077 16.4169 8.63364 16.4816 10.1431 16.1006C10.3659 16.0431 10.5959 16.0431 10.8187 16.1006C12.3282 16.4816 13.931 16.4097 15.3973 15.9209C15.5267 15.8706 15.6489 15.9928 15.5914 16.1222ZM15.807 10.9542C15.4045 12.0611 14.7576 13.0818 13.9167 13.9155C13.0757 14.7565 12.0622 15.4034 10.9553 15.8059C10.6534 15.9209 10.3228 15.9209 10.0137 15.8059C8.90678 15.4034 7.88611 14.7565 7.05233 13.9155C6.21136 13.0818 5.55727 12.0683 5.16195 10.9542C5.04694 10.6523 5.04694 10.3216 5.16195 10.0126C5.56446 8.90566 6.21136 7.88499 7.05233 7.05121C7.8933 6.21743 8.90678 5.56334 10.0137 5.16082C10.3156 5.04582 10.6462 5.04582 10.9553 5.16082C12.0622 5.56334 13.0829 6.21024 13.9167 7.05121C14.7576 7.89218 15.4045 8.90566 15.807 10.0126C15.9077 10.3216 15.9077 10.6523 15.807 10.9542ZM20.436 10.9542C20.0335 12.0611 19.3866 13.0818 18.5456 13.9155C17.834 14.6271 17.0218 15.1878 16.1161 15.5903C15.9939 15.6478 15.8717 15.5256 15.9149 15.4034C16.4036 13.9371 16.4755 12.3342 16.0946 10.8248C16.0371 10.602 16.0371 10.372 16.0946 10.1491C16.4683 8.63971 16.4036 7.03683 15.9149 5.57053C15.8717 5.44115 16.0011 5.32614 16.1161 5.38365C17.0218 5.78616 17.834 6.34681 18.5456 7.0584C19.3866 7.89937 20.0335 8.91284 20.436 10.0198C20.5438 10.3216 20.5438 10.6523 20.436 10.9542ZM20.6875 10.5732C20.6947 10.6595 20.7091 10.7457 20.7307 10.832C20.7522 10.9182 20.7738 10.9973 20.7882 11.0836C20.7666 10.9973 20.7522 10.9182 20.7307 10.832C20.7019 10.7457 20.6947 10.6595 20.6875 10.5732ZM20.9535 12.4708C20.9535 12.5211 20.9607 12.5642 20.9607 12.6074C20.9535 12.5642 20.9535 12.5211 20.9535 12.4708ZM20.8529 11.4645C20.8601 11.5076 20.8672 11.5508 20.8744 11.5939C20.8672 11.5436 20.8601 11.5076 20.8529 11.4645ZM20.9247 11.9676C20.9319 12.0108 20.9319 12.0611 20.9391 12.097C20.9319 12.0539 20.9247 12.0108 20.9247 11.9676ZM20.9463 12.2192C20.9463 12.2695 20.9535 12.3127 20.9535 12.3558C20.9535 12.3127 20.9463 12.2623 20.9463 12.2192Z" fill="var(--fill-0, #619111)" id="Vector"/>
</g>
<defs>
<clipPath id="clip0_0_118">
<rect fill="white" height="20.9675" width="20.9675"/>
</clipPath>
</defs>
</svg>