<?xml version="1.0" encoding="utf-8"?>
<svg xmlns="http://www.w3.org/2000/svg" fill="none" height="100%" overflow="visible" preserveAspectRatio="none" style="display: block;" viewBox="0 0 64 15" width="100%">
<g id="Logo 05">
<g id="Group 2147220659">
<g id="Redo">
<path d="M58.0463 14.7348C57.0395 14.7348 56.1361 14.5141 55.3361 14.0727C54.5361 13.6314 53.9017 13.0107 53.4327 12.2107C52.9776 11.397 52.75 10.4453 52.75 9.35566C52.75 8.23846 52.9914 7.27988 53.4741 6.47991C53.9568 5.67994 54.6051 5.06617 55.4189 4.63861C56.2326 4.19724 57.136 3.97656 58.1291 3.97656C59.136 3.97656 60.0394 4.19724 60.8393 4.63861C61.6531 5.06617 62.2945 5.67994 62.7634 6.47991C63.2461 7.27988 63.4875 8.23846 63.4875 9.35566C63.4875 10.3901 63.253 11.3142 62.7841 12.128C62.3289 12.9417 61.6876 13.5831 60.86 14.052C60.0463 14.5072 59.1084 14.7348 58.0463 14.7348ZM58.067 12.7073C58.6601 12.7073 59.1773 12.5624 59.6187 12.2728C60.0739 11.9694 60.4325 11.5625 60.6945 11.0521C60.9566 10.5418 61.0876 9.96254 61.0876 9.31428C61.0876 8.63845 60.9566 8.05226 60.6945 7.55573C60.4325 7.0592 60.0739 6.6799 59.6187 6.41785C59.1773 6.14199 58.667 6.00407 58.0877 6.00407C57.4809 6.00407 56.9498 6.14889 56.4947 6.43853C56.0533 6.72818 55.7154 7.12816 55.4809 7.63849C55.2465 8.13502 55.1292 8.70741 55.1292 9.35566C55.1292 10.0591 55.2602 10.666 55.5223 11.1763C55.7982 11.6728 56.1568 12.0521 56.5981 12.3142C57.0533 12.5762 57.5429 12.7073 58.067 12.7073Z" fill="var(--fill-0, #619111)" id="Vector"/>
<path d="M45.4685 14.7383C44.4479 14.7383 43.572 14.4969 42.841 14.0142C42.1238 13.5176 41.5652 12.8625 41.1652 12.0487C40.779 11.235 40.5859 10.3246 40.5859 9.31779C40.5859 8.32473 40.779 7.42821 41.1652 6.62824C41.5652 5.81448 42.1307 5.17313 42.8617 4.70418C43.5927 4.22144 44.4616 3.98007 45.4685 3.98007C46.1857 3.98007 46.8547 4.13179 47.4753 4.43522C48.096 4.72487 48.5994 5.15244 48.9856 5.71793V0.0078125H51.3441V14.49H49.0477L48.9856 12.9383C48.6546 13.49 48.1787 13.9314 47.5581 14.2624C46.9374 14.5797 46.2409 14.7383 45.4685 14.7383ZM45.9857 12.6901C46.6064 12.6901 47.1374 12.5453 47.5788 12.2556C48.0201 11.966 48.3649 11.5729 48.6132 11.0763C48.8615 10.566 48.9856 9.99363 48.9856 9.35917C48.9856 8.62816 48.8408 8.01439 48.5511 7.51786C48.2753 7.02133 47.9029 6.64893 47.4339 6.40067C46.9788 6.1524 46.4892 6.02827 45.965 6.02827C45.3858 6.02827 44.8685 6.17309 44.4134 6.46273C43.972 6.73858 43.6203 7.12477 43.3582 7.62131C43.11 8.10405 42.9858 8.67644 42.9858 9.33848C42.9858 9.98673 43.1169 10.566 43.3789 11.0763C43.641 11.5729 43.9927 11.966 44.4341 12.2556C44.8892 12.5453 45.4064 12.6901 45.9857 12.6901Z" fill="var(--fill-0, #619111)" id="Vector_2"/>
<path d="M34.6253 14.7348C33.5909 14.7348 32.6875 14.5072 31.9151 14.052C31.1427 13.5831 30.5358 12.9486 30.0945 12.1487C29.6669 11.3349 29.4531 10.4039 29.4531 9.35566C29.4531 8.26605 29.6669 7.32126 30.0945 6.52129C30.5358 5.72132 31.1427 5.10066 31.9151 4.65929C32.7013 4.20414 33.6116 3.97656 34.646 3.97656C35.6529 3.97656 36.5287 4.19724 37.2735 4.63861C38.0183 5.06617 38.6045 5.65926 39.0321 6.41785C39.4596 7.17644 39.6734 8.03847 39.6734 9.00395C39.6734 9.19705 39.6665 9.36946 39.6527 9.52117C39.6527 9.67289 39.6389 9.8384 39.6113 10.0177H31.8117C31.853 10.5556 31.991 11.0384 32.2254 11.4659C32.4599 11.8797 32.7771 12.2038 33.1771 12.4383C33.5909 12.6728 34.0598 12.79 34.584 12.79C35.1495 12.79 35.6253 12.6659 36.0115 12.4176C36.4115 12.1693 36.7218 11.8107 36.9425 11.3418H39.4045C39.2114 11.9625 38.901 12.528 38.4735 13.0383C38.0597 13.5486 37.5287 13.9624 36.8804 14.2796C36.246 14.583 35.4943 14.7348 34.6253 14.7348ZM31.8323 8.38329H37.2735C37.2597 7.6247 36.9908 7.02472 36.4666 6.58336C35.9425 6.14199 35.315 5.92131 34.584 5.92131C33.9219 5.92131 33.3219 6.12131 32.784 6.52129C32.2599 6.92127 31.9427 7.54194 31.8323 8.38329Z" fill="var(--fill-0, #619111)" id="Vector_3"/>
<path d="M18.9141 14.49V0.0078125H23.6932C24.7138 0.0078125 25.5897 0.166427 26.3207 0.483656C27.0517 0.800885 27.6172 1.26294 28.0172 1.86981C28.4171 2.47668 28.6171 3.23527 28.6171 4.14558C28.6171 5.20761 28.3344 6.04206 27.7689 6.64893C27.2172 7.25581 26.4517 7.66958 25.4724 7.89026L29.5481 14.49H26.7551L23.1346 8.28335H21.2726V14.49H18.9141ZM21.2726 6.29722H23.6518C24.3138 6.29722 24.8311 6.20757 25.2035 6.02827C25.5897 5.84896 25.8586 5.6007 26.0103 5.28347C26.1621 4.95245 26.2379 4.57315 26.2379 4.14558C26.2379 3.70422 26.1621 3.32492 26.0103 3.0077C25.8586 2.67667 25.5897 2.42841 25.2035 2.2629C24.8311 2.08359 24.3138 1.99394 23.6518 1.99394H21.2726V6.29722Z" fill="var(--fill-0, #619111)" id="Vector_4"/>
</g>
<path clip-rule="evenodd" d="M5.23256 6.29444C3.6013 6.29444 2.2789 7.61684 2.2789 9.24811C2.2789 10.8794 3.6013 12.2018 5.23256 12.2018H15.5228V14.4885H5.23256C2.33838 14.4885 -0.0078125 12.1423 -0.0078125 9.24811C-0.0078125 6.35393 2.33838 4.00773 5.23256 4.00773H12.9502V6.29444H5.23256Z" fill="var(--fill-0, #619111)" fill-rule="evenodd" id="Vector 2669 (Stroke)"/>
<path clip-rule="evenodd" d="M12.4791 5.15074L9 1.67164L10.6169 0.0546875L15.713 5.15074L10.6169 10.2468L9 8.62985L12.4791 5.15074Z" fill="var(--fill-0, #619111)" fill-rule="evenodd" id="Vector 2670 (Stroke)"/>
</g>
</g>
</svg>